<svg width="45" height="44" viewBox="0 0 45 44" fill="none" xmlns="http://www.w3.org/2000/svg">
<mask id="mask0_81_7" style="mask-type:luminance" maskUnits="userSpaceOnUse" x="0" y="0" width="45" height="44">
<path d="M0.935181 0H44.9352V44H0.935181V0Z" fill="white"/>
</mask>
<g mask="url(#mask0_81_7)">
<path fill-rule="evenodd" clip-rule="evenodd" d="M0.935181 0H44.9352V44H0.935181V0ZM34.5714 36.8867C32.5308 36.8867 31.3777 35.8233 30.4922 34.375L27.1317 36.3275C28.3453 38.7255 30.8258 40.5552 34.6667 40.5552C38.5937 40.5552 41.5178 38.5165 41.5178 34.793C41.5178 31.3408 39.5342 29.8063 36.0215 28.2975L34.9875 27.8557C33.2128 27.0857 32.4447 26.5852 32.4447 25.344C32.4447 24.3412 33.2147 23.573 34.4247 23.573C35.6108 23.573 36.3753 24.0735 37.0849 25.344L40.3042 23.2778C38.942 20.8817 37.0537 19.9668 34.4247 19.9668C30.7323 19.9668 28.3692 22.3282 28.3692 25.4302C28.3692 28.7943 30.3492 30.3875 33.3339 31.658L34.3678 32.1017C36.2543 32.9267 37.3782 33.429 37.3782 34.8462C37.3782 36.0305 36.2837 36.8867 34.5714 36.8867ZM18.548 36.8592C17.1272 36.8592 16.535 35.8875 15.886 34.7325L12.52 36.7712C13.4953 38.8355 15.413 40.5478 18.7222 40.5478C22.387 40.5478 24.8968 38.599 24.8968 34.3182V20.2015H20.7627V34.2632C20.7627 36.3293 19.9047 36.8592 18.5462 36.8592" fill="#737373"/>
</g>
</svg>
