<svg width="44" height="44" viewBox="0 0 44 44" fill="none" xmlns="http://www.w3.org/2000/svg">
<path d="M21.4895 0.000359893C19.696 0.00869799 17.9831 0.161742 16.476 0.428559C12.0363 1.21332 11.2302 2.85588 11.2302 5.88504V9.88565H21.7219V11.2192H11.2302H7.2928C4.24364 11.2192 1.57371 13.0528 0.738586 16.5411C-0.224716 20.5394 -0.267443 23.0345 0.738586 27.2094C1.48437 30.317 3.2654 32.5313 6.31456 32.5313H9.92183V27.7354C9.92183 24.2707 12.918 21.2146 16.476 21.2146H26.9555C29.8726 21.2146 32.2013 18.8115 32.2013 15.8804V5.88504C32.2013 3.0403 29.8026 0.903336 26.9555 0.428559C25.1532 0.128389 23.2831 -0.00797832 21.4895 0.000359893ZM15.8157 3.21797C16.8994 3.21797 17.7844 4.11788 17.7844 5.22439C17.7844 6.32698 16.8994 7.21858 15.8157 7.21858C14.7281 7.21858 13.847 6.32698 13.847 5.22439C13.847 4.11788 14.7281 3.21797 15.8157 3.21797Z" fill="#737373"/>
<path d="M33.5097 11.2192V15.8805C33.5097 19.4943 30.4474 22.5359 26.9555 22.5359H16.476C13.6056 22.5359 11.2302 24.9939 11.2302 27.8701V37.8655C11.2302 40.7102 13.7027 42.3835 16.476 43.1996C19.7971 44.1766 22.9818 44.3532 26.9555 43.1996C29.5968 42.4345 32.2013 40.8946 32.2013 37.8655V33.8649H21.7219V32.5313H32.2013H37.4471C40.4963 32.5313 41.6325 30.4034 42.6929 27.2094C43.7883 23.9213 43.7417 20.7592 42.6929 16.5411C41.9394 13.5041 40.5001 11.2192 37.4471 11.2192H33.5097ZM27.6158 36.5319C28.7034 36.5319 29.5845 37.4235 29.5845 38.5261C29.5845 39.6326 28.7034 40.5325 27.6158 40.5325C26.5321 40.5325 25.6471 39.6326 25.6471 38.5261C25.6471 37.4235 26.5321 36.5319 27.6158 36.5319Z" fill="#737373"/>
</svg>
